<?xml version="1.0" standalone="no"?><!DOCTYPE svg PUBLIC "-//W3C//DTD SVG 1.1//EN" "http://www.w3.org/Graphics/SVG/1.1/DTD/svg11.dtd"><svg t="1759222162902" class="icon" viewBox="0 0 1024 1024" version="1.1" xmlns="http://www.w3.org/2000/svg" p-id="16924" xmlns:xlink="http://www.w3.org/1999/xlink" width="64" height="64"><path d="M800.427 894.293H223.573c-51.2 0-93.866-42.666-93.866-93.866V223.573c0-51.2 42.666-93.866 93.866-93.866h576.854c51.2 0 93.866 42.666 93.866 93.866v576.854c0 51.2-40.96 93.866-93.866 93.866zM223.573 180.907c-23.893 0-42.666 18.773-42.666 42.666v576.854c0 23.893 18.773 42.666 42.666 42.666h576.854c23.893 0 42.666-18.773 42.666-42.666V223.573c0-23.893-18.773-42.666-42.666-42.666H223.573z" fill="#425EFE" p-id="16925"></path><path d="M266.24 989.867c-13.653 0-25.6-11.947-25.6-25.6V875.52c0-13.653 11.947-25.6 25.6-25.6s25.6 11.947 25.6 25.6v88.747c0 13.653-10.24 25.6-25.6 25.6z m122.88 0c-13.653 0-25.6-11.947-25.6-25.6V875.52c0-13.653 11.947-25.6 25.6-25.6s25.6 11.947 25.6 25.6v88.747c0 13.653-11.947 25.6-25.6 25.6z m122.88 0c-13.653 0-25.6-11.947-25.6-25.6V875.52c0-13.653 11.947-25.6 25.6-25.6s25.6 11.947 25.6 25.6v88.747c0 13.653-11.947 25.6-25.6 25.6z m122.88 0c-13.653 0-25.6-11.947-25.6-25.6V875.52c0-13.653 11.947-25.6 25.6-25.6s25.6 11.947 25.6 25.6v88.747c0 13.653-11.947 25.6-25.6 25.6z m122.88 0c-13.653 0-25.6-11.947-25.6-25.6V875.52c0-13.653 11.947-25.6 25.6-25.6s25.6 11.947 25.6 25.6v88.747c0 13.653-11.947 25.6-25.6 25.6zM266.24 174.08c-13.653 0-25.6-11.947-25.6-25.6V59.733c0-13.653 11.947-25.6 25.6-25.6s25.6 11.947 25.6 25.6v88.747c0 13.653-10.24 25.6-25.6 25.6z m122.88 0c-13.653 0-25.6-11.947-25.6-25.6V59.733c0-13.653 11.947-25.6 25.6-25.6s25.6 11.947 25.6 25.6v88.747c0 13.653-11.947 25.6-25.6 25.6z m122.88 0c-13.653 0-25.6-11.947-25.6-25.6V59.733c0-13.653 11.947-25.6 25.6-25.6s25.6 11.947 25.6 25.6v88.747c0 13.653-11.947 25.6-25.6 25.6z m122.88 0c-13.653 0-25.6-11.947-25.6-25.6V59.733c0-13.653 11.947-25.6 25.6-25.6s25.6 11.947 25.6 25.6v88.747c0 13.653-11.947 25.6-25.6 25.6z m122.88 0c-13.653 0-25.6-11.947-25.6-25.6V59.733c0-13.653 11.947-25.6 25.6-25.6s25.6 11.947 25.6 25.6v88.747c0 13.653-11.947 25.6-25.6 25.6zM964.267 783.36H875.52c-13.653 0-25.6-11.947-25.6-25.6s11.947-25.6 25.6-25.6h88.747c13.653 0 25.6 11.947 25.6 25.6s-11.947 25.6-25.6 25.6z m0-122.88H875.52c-13.653 0-25.6-11.947-25.6-25.6s11.947-25.6 25.6-25.6h88.747c13.653 0 25.6 11.947 25.6 25.6s-11.947 25.6-25.6 25.6z m0-122.88H875.52c-13.653 0-25.6-11.947-25.6-25.6s11.947-25.6 25.6-25.6h88.747c13.653 0 25.6 11.947 25.6 25.6s-11.947 25.6-25.6 25.6z m0-122.88H875.52c-13.653 0-25.6-11.947-25.6-25.6s11.947-25.6 25.6-25.6h88.747c13.653 0 25.6 11.947 25.6 25.6s-11.947 25.6-25.6 25.6z m0-122.88H875.52c-13.653 0-25.6-11.947-25.6-25.6s11.947-25.6 25.6-25.6h88.747c13.653 0 25.6 11.947 25.6 25.6 0 15.36-11.947 25.6-25.6 25.6zM148.48 783.36H59.733c-13.653 0-25.6-11.947-25.6-25.6s11.947-25.6 25.6-25.6h88.747c13.653 0 25.6 11.947 25.6 25.6s-11.947 25.6-25.6 25.6z m0-122.88H59.733c-13.653 0-25.6-11.947-25.6-25.6s11.947-25.6 25.6-25.6h88.747c13.653 0 25.6 11.947 25.6 25.6s-11.947 25.6-25.6 25.6z m0-122.88H59.733c-13.653 0-25.6-11.947-25.6-25.6s11.947-25.6 25.6-25.6h88.747c13.653 0 25.6 11.947 25.6 25.6s-11.947 25.6-25.6 25.6z m0-122.88H59.733c-13.653 0-25.6-11.947-25.6-25.6s11.947-25.6 25.6-25.6h88.747c13.653 0 25.6 11.947 25.6 25.6s-11.947 25.6-25.6 25.6z m0-122.88H59.733c-13.653 0-25.6-11.947-25.6-25.6s11.947-25.6 25.6-25.6h88.747c13.653 0 25.6 11.947 25.6 25.6 0 15.36-11.947 25.6-25.6 25.6zM593.92 653.653h-71.68l-23.893-69.973h-112.64l-22.187 69.973h-71.68l112.64-308.906h76.8l112.64 308.906z m-110.933-122.88l-35.84-107.52c-1.707-6.826-3.414-15.36-5.12-27.306h-1.707c0 8.533-3.413 17.066-5.12 25.6l-35.84 107.52h83.627z m215.04-186.026v308.906h-66.56V344.747h66.56z" fill="#425EFE" p-id="16926"></path></svg>