<?xml version="1.0" standalone="no"?><!DOCTYPE svg PUBLIC "-//W3C//DTD SVG 1.1//EN" "http://www.w3.org/Graphics/SVG/1.1/DTD/svg11.dtd"><svg t="1779525744802" class="icon" viewBox="0 0 1024 1024" version="1.1" xmlns="http://www.w3.org/2000/svg" p-id="18124" xmlns:xlink="http://www.w3.org/1999/xlink" width="64" height="64"><path d="M696.888889 248.888889c-78.222222 0-142.222222 64-142.222222 142.222222v241.777778c0 46.933333-38.4 85.333333-85.333334 85.333333s-85.333333-38.4-85.333333-85.333333v-42.666667h5.688889c75.377778 0 136.533333-61.155556 136.533333-136.533333v-45.511111c0-25.6-19.911111-45.511111-45.511111-45.511111H455.111111v-85.333334c0-15.644444-12.8-28.444444-28.444444-28.444444s-28.444444 12.8-28.444445 28.444444v85.333334h-85.333333v-85.333334c0-15.644444-12.8-28.444444-28.444445-28.444444s-28.444444 12.8-28.444444 28.444444v85.333334h-25.6c-25.6 0-45.511111 19.911111-45.511111 45.511111v45.511111c0 75.377778 61.155556 136.533333 136.533333 136.533333h5.688889v42.666667c0 78.222222 64 142.222222 142.222222 142.222222s142.222222-64 142.222223-142.222222v-241.777778c0-46.933333 38.4-85.333333 85.333333-85.333333s85.333333 38.4 85.333333 85.333333v241.777778c0 15.644444 12.8 28.444444 28.444445 28.444444s28.444444-12.8 28.444444-28.444444v-241.777778c0-78.222222-64-142.222222-142.222222-142.222222zM321.422222 484.977778c-5.688889 0-8.533333-5.688889-5.688889-9.955556l39.822223-64c4.266667-5.688889 14.222222-2.844444 12.8 4.266667l-5.688889 52.622222h27.022222c5.688889 0 8.533333 5.688889 5.688889 9.955556L355.555556 541.866667c-4.266667 5.688889-14.222222 2.844444-12.8-4.266667l5.688888-52.622222h-27.022222z" fill="#333333" p-id="18125"></path></svg>