<?xml version="1.0" standalone="no"?><!DOCTYPE svg PUBLIC "-//W3C//DTD SVG 1.1//EN" "http://www.w3.org/Graphics/SVG/1.1/DTD/svg11.dtd"><svg t="1759223085191" class="icon" viewBox="0 0 1024 1024" version="1.1" xmlns="http://www.w3.org/2000/svg" p-id="18494" xmlns:xlink="http://www.w3.org/1999/xlink" width="64" height="64"><path d="M621.724444 402.204444H950.755554c40.419555 0 73.173333 32.654222 73.173333 73.272889V950.755554a72.974222 72.974222 0 0 1-73.173333 73.173333H475.477333a72.974222 72.974222 0 0 1-73.173334-73.173333V621.724444H73.173333A72.974222 72.974222 0 0 1 0 548.55111V73.173333C0 32.753778 32.554667 0 73.173333 0H548.55111c40.419555 0 73.173333 32.554667 73.173334 73.173333V402.204444z m0 73.272889v73.073777a72.974222 72.974222 0 0 1-73.173334 73.173334h-73.073777v292.693333c0 20.110222 16.327111 36.437333 36.536889 36.437333h402.204443a36.536889 36.536889 0 0 0 36.636445-36.536889V512.014222a36.536889 36.536889 0 0 0-36.536889-36.536889h-292.693333zM73.173333 109.710222v402.204444c0 20.309333 16.327111 36.636444 36.536889 36.636444h402.204444a36.536889 36.536889 0 0 0 36.636444-36.536888v-402.204444a36.536889 36.536889 0 0 0-36.536888-36.636445h-402.204444a36.536889 36.536889 0 0 0-36.636445 36.536889z m73.073778 279.153777V204.984889h128.924444v-76.956445H328.533333c7.367111 0.995556 10.951111 1.991111 10.951111 3.086222a84.920889 84.920889 0 0 0-6.272 34.545778v39.324445h136.789333v179.199999h-58.140444v-23.594666h-78.648889v135.096888H276.764444V360.590222h-76.956444v28.273777H146.346666z m53.461333-139.875555v69.191111h76.956445v-69.091555h-76.956445z m212.152889 69.191111v-69.091555h-78.648889v69.091555h78.648889z m232.959999 557.710222h-59.733333l105.329778-290.702222h73.870222l102.144 290.702222h-62.819556l-22.001777-61.326223H666.82311l-21.902222 61.326223z m37.831111-110.008889h83.228445l-39.324445-124.145778h-1.592888l-42.410667 124.145778zM950.755554 292.593777h-73.173333a146.346666 146.346666 0 0 0-146.247111-146.346666V73.173333c121.159111 0 219.420444 98.261333 219.420444 219.420444zM73.173333 731.434666h73.073778c0 80.839111 65.507555 146.346666 146.346666 146.346666v73.073778A219.420444 219.420444 0 0 1 73.173333 731.434666z" fill="#425EFE" p-id="18495"></path></svg>